<svg width="27" height="27" viewBox="0 0 27 27" fill="none" xmlns="http://www.w3.org/2000/svg">
<g clip-path="url(#clip0_80_111)">
<mask id="mask0_80_111" style="mask-type:luminance" maskUnits="userSpaceOnUse" x="0" y="0" width="27" height="27">
<path d="M27 0H0V27H27V0Z" fill="white"/>
</mask>
<g mask="url(#mask0_80_111)">
<path d="M18.3601 4.86C18.3601 7.54411 16.1842 9.72 13.5001 9.72C10.816 9.72 8.64014 7.54411 8.64014 4.86C8.64014 2.17589 10.816 0 13.5001 0C16.1842 0 18.3601 2.17589 18.3601 4.86Z" fill="#0401E4"/>
<path d="M13.1261 14.1116C11.4171 12.3656 9.37647 10.9787 7.12401 10.0324C4.87154 9.08604 2.4527 8.59935 0.00952148 8.60086V18.4181C1.84733 18.4204 3.63604 19.0115 5.11325 20.1048C6.59046 21.1981 7.67842 22.736 8.21752 24.4931C8.736 20.6068 10.4516 16.9784 13.1261 14.1116Z" fill="#0401E4"/>
<path d="M26.9905 8.60086V18.4181C24.7152 18.4209 22.534 19.3261 20.9252 20.9349C19.3164 22.5437 18.4114 24.7249 18.4086 27H8.59131C8.59131 16.8548 16.8453 8.60086 26.9905 8.60086Z" fill="#0401E4"/>
</g>
</g>
<defs>
<clipPath id="clip0_80_111">
<rect width="27" height="27" fill="white"/>
</clipPath>
</defs>
</svg>
