<svg width="229" height="29" viewBox="0 0 229 29" fill="none" xmlns="http://www.w3.org/2000/svg">
<path d="M40.9176 23V5.54545H51.7415V7.8125H43.5511V13.1307H50.9659V15.3892H43.5511V23H40.9176ZM59.4567 23.2642C58.1669 23.2642 57.0561 22.9886 56.1243 22.4375C55.1982 21.8807 54.4822 21.0994 53.9766 20.0938C53.4766 19.0824 53.2266 17.8977 53.2266 16.5398C53.2266 15.1989 53.4766 14.017 53.9766 12.9943C54.4822 11.9716 55.1868 11.1733 56.0902 10.5994C56.9993 10.0256 58.0618 9.73864 59.2777 9.73864C60.0163 9.73864 60.7322 9.8608 61.4254 10.1051C62.1186 10.3494 62.7408 10.733 63.2919 11.2557C63.843 11.7784 64.2777 12.4574 64.5959 13.2926C64.9141 14.1222 65.0732 15.1307 65.0732 16.3182V17.2216H54.6669V15.3125H62.576C62.576 14.642 62.4396 14.0483 62.1669 13.5312C61.8942 13.0085 61.5107 12.5966 61.0163 12.2955C60.5277 11.9943 59.9538 11.8438 59.2947 11.8438C58.5788 11.8438 57.9538 12.0199 57.4197 12.3722C56.8913 12.7187 56.4822 13.1733 56.1925 13.7358C55.9084 14.2926 55.7663 14.8977 55.7663 15.5511V17.0426C55.7663 17.9176 55.9197 18.6619 56.2266 19.2756C56.5391 19.8892 56.9737 20.358 57.5305 20.6818C58.0874 21 58.7379 21.1591 59.4822 21.1591C59.9652 21.1591 60.4055 21.0909 60.8033 20.9545C61.201 20.8125 61.5447 20.6023 61.8345 20.3239C62.1243 20.0455 62.3459 19.7017 62.4993 19.2926L64.9112 19.7273C64.718 20.4375 64.3714 21.0597 63.8714 21.5938C63.3771 22.1222 62.755 22.5341 62.005 22.8295C61.2607 23.1193 60.4112 23.2642 59.4567 23.2642ZM73.5426 23.2642C72.2528 23.2642 71.142 22.9886 70.2102 22.4375C69.2841 21.8807 68.5682 21.0994 68.0625 20.0938C67.5625 19.0824 67.3125 17.8977 67.3125 16.5398C67.3125 15.1989 67.5625 14.017 68.0625 12.9943C68.5682 11.9716 69.2727 11.1733 70.1761 10.5994C71.0852 10.0256 72.1477 9.73864 73.3636 9.73864C74.1023 9.73864 74.8182 9.8608 75.5114 10.1051C76.2045 10.3494 76.8267 10.733 77.3778 11.2557C77.929 11.7784 78.3636 12.4574 78.6818 13.2926C79 14.1222 79.1591 15.1307 79.1591 16.3182V17.2216H68.7528V15.3125H76.6619C76.6619 14.642 76.5256 14.0483 76.2528 13.5312C75.9801 13.0085 75.5966 12.5966 75.1023 12.2955C74.6136 11.9943 74.0398 11.8438 73.3807 11.8438C72.6648 11.8438 72.0398 12.0199 71.5057 12.3722C70.9773 12.7187 70.5682 13.1733 70.2784 13.7358C69.9943 14.2926 69.8523 14.8977 69.8523 15.5511V17.0426C69.8523 17.9176 70.0057 18.6619 70.3125 19.2756C70.625 19.8892 71.0597 20.358 71.6165 20.6818C72.1733 21 72.8239 21.1591 73.5682 21.1591C74.0511 21.1591 74.4915 21.0909 74.8892 20.9545C75.2869 20.8125 75.6307 20.6023 75.9205 20.3239C76.2102 20.0455 76.4318 19.7017 76.5852 19.2926L78.9972 19.7273C78.804 20.4375 78.4574 21.0597 77.9574 21.5938C77.4631 22.1222 76.8409 22.5341 76.0909 22.8295C75.3466 23.1193 74.4972 23.2642 73.5426 23.2642ZM86.8871 23.2557C85.8303 23.2557 84.8871 22.9858 84.0575 22.446C83.2337 21.9006 82.5859 21.125 82.1143 20.1193C81.6484 19.108 81.4155 17.8949 81.4155 16.4801C81.4155 15.0653 81.6513 13.8551 82.1229 12.8494C82.6001 11.8437 83.2536 11.0739 84.0831 10.5398C84.9126 10.0057 85.853 9.73864 86.9041 9.73864C87.7166 9.73864 88.37 9.875 88.8643 10.1477C89.3643 10.4148 89.7507 10.7273 90.0234 11.0852C90.3018 11.4432 90.5178 11.7585 90.6712 12.0312H90.8246V5.54545H93.3729V23H90.8842V20.9631H90.6712C90.5178 21.2415 90.2962 21.5597 90.0064 21.9176C89.7223 22.2756 89.3303 22.5881 88.8303 22.8551C88.3303 23.1222 87.6825 23.2557 86.8871 23.2557ZM87.4496 21.0824C88.1825 21.0824 88.8018 20.8892 89.3075 20.5028C89.8189 20.1108 90.2053 19.5682 90.4666 18.875C90.7337 18.1818 90.8672 17.375 90.8672 16.4545C90.8672 15.5455 90.7365 14.75 90.4751 14.0682C90.2138 13.3864 89.8303 12.8551 89.3246 12.4744C88.8189 12.0937 88.1939 11.9034 87.4496 11.9034C86.6825 11.9034 86.0433 12.1023 85.532 12.5C85.0206 12.8977 84.6342 13.4403 84.3729 14.1278C84.1172 14.8153 83.9893 15.5909 83.9893 16.4545C83.9893 17.3295 84.12 18.1165 84.3814 18.8153C84.6428 19.5142 85.0291 20.0682 85.5405 20.4773C86.0575 20.8807 86.6939 21.0824 87.4496 21.0824ZM97.2145 23V5.54545H99.7628V12.0312H99.9162C100.064 11.7585 100.277 11.4432 100.555 11.0852C100.834 10.7273 101.22 10.4148 101.714 10.1477C102.209 9.875 102.862 9.73864 103.675 9.73864C104.732 9.73864 105.675 10.0057 106.504 10.5398C107.334 11.0739 107.984 11.8437 108.456 12.8494C108.933 13.8551 109.172 15.0653 109.172 16.4801C109.172 17.8949 108.936 19.108 108.464 20.1193C107.993 21.125 107.345 21.9006 106.521 22.446C105.697 22.9858 104.757 23.2557 103.7 23.2557C102.905 23.2557 102.254 23.1222 101.749 22.8551C101.249 22.5881 100.857 22.2756 100.572 21.9176C100.288 21.5597 100.07 21.2415 99.9162 20.9631H99.7031V23H97.2145ZM99.7116 16.4545C99.7116 17.375 99.8452 18.1818 100.112 18.875C100.379 19.5682 100.766 20.1108 101.271 20.5028C101.777 20.8892 102.396 21.0824 103.129 21.0824C103.891 21.0824 104.527 20.8807 105.038 20.4773C105.55 20.0682 105.936 19.5142 106.197 18.8153C106.464 18.1165 106.598 17.3295 106.598 16.4545C106.598 15.5909 106.467 14.8153 106.206 14.1278C105.95 13.4403 105.564 12.8977 105.047 12.5C104.536 12.1023 103.896 11.9034 103.129 11.9034C102.391 11.9034 101.766 12.0937 101.254 12.4744C100.749 12.8551 100.365 13.3864 100.104 14.0682C99.8423 14.75 99.7116 15.5455 99.7116 16.4545ZM115.843 23.2898C115.013 23.2898 114.263 23.1364 113.593 22.8295C112.923 22.517 112.391 22.0653 111.999 21.4744C111.613 20.8835 111.42 20.1591 111.42 19.3011C111.42 18.5625 111.562 17.9545 111.846 17.4773C112.13 17 112.513 16.6222 112.996 16.3438C113.479 16.0653 114.019 15.8551 114.616 15.7131C115.212 15.571 115.82 15.4631 116.44 15.3892C117.224 15.2983 117.86 15.2244 118.349 15.1676C118.837 15.1051 119.192 15.0057 119.414 14.8693C119.636 14.733 119.746 14.5114 119.746 14.2045V14.1449C119.746 13.4006 119.536 12.8239 119.116 12.4148C118.701 12.0057 118.082 11.8011 117.258 11.8011C116.4 11.8011 115.724 11.9915 115.229 12.3722C114.741 12.7472 114.403 13.1648 114.215 13.625L111.82 13.0795C112.104 12.2841 112.519 11.642 113.065 11.1534C113.616 10.6591 114.249 10.3011 114.965 10.0795C115.681 9.85227 116.434 9.73864 117.224 9.73864C117.746 9.73864 118.3 9.80114 118.886 9.92614C119.477 10.0455 120.028 10.267 120.539 10.5909C121.056 10.9148 121.479 11.3778 121.809 11.9801C122.138 12.5767 122.303 13.3523 122.303 14.3068V23H119.815V21.2102H119.712C119.548 21.5398 119.3 21.8636 118.971 22.1818C118.641 22.5 118.218 22.7642 117.701 22.9744C117.184 23.1847 116.565 23.2898 115.843 23.2898ZM116.397 21.2443C117.102 21.2443 117.704 21.1051 118.204 20.8267C118.71 20.5483 119.093 20.1847 119.354 19.7358C119.621 19.2812 119.755 18.7955 119.755 18.2784V16.5909C119.664 16.6818 119.488 16.767 119.227 16.8466C118.971 16.9205 118.678 16.9858 118.349 17.0426C118.019 17.0937 117.698 17.142 117.386 17.1875C117.073 17.2273 116.812 17.2614 116.602 17.2898C116.107 17.3523 115.656 17.4574 115.246 17.6051C114.843 17.7528 114.519 17.9659 114.275 18.2443C114.036 18.517 113.917 18.8807 113.917 19.3352C113.917 19.9659 114.15 20.4432 114.616 20.767C115.082 21.0852 115.675 21.2443 116.397 21.2443ZM131.212 23.2642C129.945 23.2642 128.854 22.9773 127.939 22.4034C127.03 21.8239 126.331 21.0256 125.842 20.0085C125.354 18.9915 125.109 17.8267 125.109 16.5142C125.109 15.1847 125.359 14.0114 125.859 12.9943C126.359 11.9716 127.064 11.1733 127.973 10.5994C128.882 10.0256 129.953 9.73864 131.186 9.73864C132.18 9.73864 133.067 9.9233 133.845 10.2926C134.624 10.6562 135.251 11.1676 135.729 11.8267C136.212 12.4858 136.499 13.2557 136.589 14.1364H134.109C133.973 13.5227 133.661 12.9943 133.172 12.5511C132.689 12.108 132.041 11.8864 131.229 11.8864C130.518 11.8864 129.896 12.0739 129.362 12.4489C128.834 12.8182 128.422 13.3466 128.126 14.0341C127.831 14.7159 127.683 15.5227 127.683 16.4545C127.683 17.4091 127.828 18.233 128.118 18.9261C128.408 19.6193 128.817 20.1562 129.345 20.5369C129.879 20.9176 130.507 21.108 131.229 21.108C131.712 21.108 132.149 21.0199 132.541 20.8438C132.939 20.6619 133.271 20.4034 133.538 20.0682C133.811 19.733 134.001 19.3295 134.109 18.858H136.589C136.499 19.7045 136.223 20.4602 135.763 21.125C135.303 21.7898 134.686 22.3125 133.913 22.6932C133.146 23.0739 132.246 23.2642 131.212 23.2642ZM141.658 18.5597L141.641 15.4489H142.085L147.3 9.90909H150.352L144.403 16.2159H144.002L141.658 18.5597ZM139.315 23V5.54545H141.863V23H139.315ZM147.582 23L142.894 16.7784L144.65 14.9972L150.71 23H147.582ZM168.75 10.1307C168.659 9.32386 168.284 8.69886 167.625 8.25568C166.966 7.80682 166.136 7.58239 165.136 7.58239C164.42 7.58239 163.801 7.69602 163.278 7.92329C162.756 8.14489 162.349 8.4517 162.06 8.84375C161.776 9.23011 161.634 9.67045 161.634 10.1648C161.634 10.5795 161.73 10.9375 161.923 11.2386C162.122 11.5398 162.381 11.7926 162.699 11.9972C163.023 12.196 163.369 12.3636 163.739 12.5C164.108 12.6307 164.463 12.7386 164.804 12.8239L166.509 13.267C167.065 13.4034 167.636 13.5881 168.222 13.821C168.807 14.054 169.349 14.3608 169.849 14.7415C170.349 15.1222 170.753 15.5938 171.06 16.1562C171.372 16.7188 171.528 17.392 171.528 18.1761C171.528 19.1648 171.273 20.0426 170.761 20.8097C170.256 21.5767 169.52 22.1818 168.554 22.625C167.594 23.0682 166.432 23.2898 165.068 23.2898C163.761 23.2898 162.631 23.0824 161.676 22.6676C160.722 22.2528 159.974 21.6648 159.435 20.9034C158.895 20.1364 158.597 19.2273 158.54 18.1761H161.182C161.233 18.8068 161.438 19.3324 161.795 19.7528C162.159 20.1676 162.622 20.4773 163.185 20.6818C163.753 20.8807 164.375 20.9801 165.051 20.9801C165.795 20.9801 166.457 20.8636 167.037 20.6307C167.622 20.392 168.082 20.0625 168.418 19.642C168.753 19.2159 168.92 18.7187 168.92 18.1506C168.92 17.6335 168.773 17.2102 168.477 16.8807C168.188 16.5511 167.793 16.2784 167.293 16.0625C166.798 15.8466 166.239 15.6562 165.614 15.4915L163.551 14.929C162.153 14.5483 161.045 13.9886 160.227 13.25C159.415 12.5114 159.009 11.5341 159.009 10.3182C159.009 9.3125 159.281 8.43466 159.827 7.68466C160.372 6.93466 161.111 6.35227 162.043 5.9375C162.974 5.51705 164.026 5.30682 165.196 5.30682C166.378 5.30682 167.42 5.5142 168.324 5.92898C169.233 6.34375 169.949 6.91477 170.472 7.64204C170.994 8.36364 171.267 9.19318 171.29 10.1307H168.75ZM174.471 27.9091V9.90909H176.96V12.0312H177.173C177.32 11.7585 177.533 11.4432 177.812 11.0852C178.09 10.7273 178.477 10.4148 178.971 10.1477C179.465 9.875 180.119 9.73864 180.931 9.73864C181.988 9.73864 182.931 10.0057 183.761 10.5398C184.59 11.0739 185.241 11.8437 185.712 12.8494C186.19 13.8551 186.428 15.0653 186.428 16.4801C186.428 17.8949 186.192 19.108 185.721 20.1193C185.249 21.125 184.602 21.9006 183.778 22.446C182.954 22.9858 182.013 23.2557 180.957 23.2557C180.161 23.2557 179.511 23.1222 179.005 22.8551C178.505 22.5881 178.113 22.2756 177.829 21.9176C177.545 21.5597 177.326 21.2415 177.173 20.9631H177.019V27.9091H174.471ZM176.968 16.4545C176.968 17.375 177.102 18.1818 177.369 18.875C177.636 19.5682 178.022 20.1108 178.528 20.5028C179.033 20.8892 179.653 21.0824 180.386 21.0824C181.147 21.0824 181.783 20.8807 182.295 20.4773C182.806 20.0682 183.192 19.5142 183.454 18.8153C183.721 18.1165 183.854 17.3295 183.854 16.4545C183.854 15.5909 183.724 14.8153 183.462 14.1278C183.207 13.4403 182.82 12.8977 182.303 12.5C181.792 12.1023 181.153 11.9034 180.386 11.9034C179.647 11.9034 179.022 12.0937 178.511 12.4744C178.005 12.8551 177.621 13.3864 177.36 14.0682C177.099 14.75 176.968 15.5455 176.968 16.4545ZM193.093 23.2898C192.263 23.2898 191.513 23.1364 190.843 22.8295C190.173 22.517 189.641 22.0653 189.249 21.4744C188.863 20.8835 188.67 20.1591 188.67 19.3011C188.67 18.5625 188.812 17.9545 189.096 17.4773C189.38 17 189.763 16.6222 190.246 16.3438C190.729 16.0653 191.269 15.8551 191.866 15.7131C192.462 15.571 193.07 15.4631 193.69 15.3892C194.474 15.2983 195.11 15.2244 195.599 15.1676C196.087 15.1051 196.442 15.0057 196.664 14.8693C196.886 14.733 196.996 14.5114 196.996 14.2045V14.1449C196.996 13.4006 196.786 12.8239 196.366 12.4148C195.951 12.0057 195.332 11.8011 194.508 11.8011C193.65 11.8011 192.974 11.9915 192.479 12.3722C191.991 12.7472 191.653 13.1648 191.465 13.625L189.07 13.0795C189.354 12.2841 189.769 11.642 190.315 11.1534C190.866 10.6591 191.499 10.3011 192.215 10.0795C192.931 9.85227 193.684 9.73864 194.474 9.73864C194.996 9.73864 195.55 9.80114 196.136 9.92614C196.727 10.0455 197.278 10.267 197.789 10.5909C198.306 10.9148 198.729 11.3778 199.059 11.9801C199.388 12.5767 199.553 13.3523 199.553 14.3068V23H197.065V21.2102H196.962C196.798 21.5398 196.55 21.8636 196.221 22.1818C195.891 22.5 195.468 22.7642 194.951 22.9744C194.434 23.1847 193.815 23.2898 193.093 23.2898ZM193.647 21.2443C194.352 21.2443 194.954 21.1051 195.454 20.8267C195.96 20.5483 196.343 20.1847 196.604 19.7358C196.871 19.2812 197.005 18.7955 197.005 18.2784V16.5909C196.914 16.6818 196.738 16.767 196.477 16.8466C196.221 16.9205 195.928 16.9858 195.599 17.0426C195.269 17.0937 194.948 17.142 194.636 17.1875C194.323 17.2273 194.062 17.2614 193.852 17.2898C193.357 17.3523 192.906 17.4574 192.496 17.6051C192.093 17.7528 191.769 17.9659 191.525 18.2443C191.286 18.517 191.167 18.8807 191.167 19.3352C191.167 19.9659 191.4 20.4432 191.866 20.767C192.332 21.0852 192.925 21.2443 193.647 21.2443ZM208.462 23.2642C207.195 23.2642 206.104 22.9773 205.189 22.4034C204.28 21.8239 203.581 21.0256 203.092 20.0085C202.604 18.9915 202.359 17.8267 202.359 16.5142C202.359 15.1847 202.609 14.0114 203.109 12.9943C203.609 11.9716 204.314 11.1733 205.223 10.5994C206.132 10.0256 207.203 9.73864 208.436 9.73864C209.43 9.73864 210.317 9.9233 211.095 10.2926C211.874 10.6562 212.501 11.1676 212.979 11.8267C213.462 12.4858 213.749 13.2557 213.839 14.1364H211.359C211.223 13.5227 210.911 12.9943 210.422 12.5511C209.939 12.108 209.291 11.8864 208.479 11.8864C207.768 11.8864 207.146 12.0739 206.612 12.4489C206.084 12.8182 205.672 13.3466 205.376 14.0341C205.081 14.7159 204.933 15.5227 204.933 16.4545C204.933 17.4091 205.078 18.233 205.368 18.9261C205.658 19.6193 206.067 20.1562 206.595 20.5369C207.129 20.9176 207.757 21.108 208.479 21.108C208.962 21.108 209.399 21.0199 209.791 20.8438C210.189 20.6619 210.521 20.4034 210.788 20.0682C211.061 19.733 211.251 19.3295 211.359 18.858H213.839C213.749 19.7045 213.473 20.4602 213.013 21.125C212.553 21.7898 211.936 22.3125 211.163 22.6932C210.396 23.0739 209.496 23.2642 208.462 23.2642ZM222.207 23.2642C220.917 23.2642 219.806 22.9886 218.874 22.4375C217.948 21.8807 217.232 21.0994 216.727 20.0938C216.227 19.0824 215.977 17.8977 215.977 16.5398C215.977 15.1989 216.227 14.017 216.727 12.9943C217.232 11.9716 217.937 11.1733 218.84 10.5994C219.749 10.0256 220.812 9.73864 222.028 9.73864C222.766 9.73864 223.482 9.8608 224.175 10.1051C224.869 10.3494 225.491 10.733 226.042 11.2557C226.593 11.7784 227.028 12.4574 227.346 13.2926C227.664 14.1222 227.823 15.1307 227.823 16.3182V17.2216H217.417V15.3125H225.326C225.326 14.642 225.19 14.0483 224.917 13.5312C224.644 13.0085 224.261 12.5966 223.766 12.2955C223.278 11.9943 222.704 11.8438 222.045 11.8438C221.329 11.8438 220.704 12.0199 220.17 12.3722C219.641 12.7187 219.232 13.1733 218.942 13.7358C218.658 14.2926 218.516 14.8977 218.516 15.5511V17.0426C218.516 17.9176 218.67 18.6619 218.977 19.2756C219.289 19.8892 219.724 20.358 220.281 20.6818C220.837 21 221.488 21.1591 222.232 21.1591C222.715 21.1591 223.156 21.0909 223.553 20.9545C223.951 20.8125 224.295 20.6023 224.585 20.3239C224.874 20.0455 225.096 19.7017 225.249 19.2926L227.661 19.7273C227.468 20.4375 227.121 21.0597 226.621 21.5938C226.127 22.1222 225.505 22.5341 224.755 22.8295C224.011 23.1193 223.161 23.2642 222.207 23.2642Z" fill="#0401E4"/>
<g clip-path="url(#clip0_80_76)">
<mask id="mask0_80_76" style="mask-type:luminance" maskUnits="userSpaceOnUse" x="0" y="0" width="27" height="27">
<path d="M27 0H0V27H27V0Z" fill="white"/>
</mask>
<g mask="url(#mask0_80_76)">
<path d="M18.3601 4.86C18.3601 7.54411 16.1842 9.72 13.5001 9.72C10.816 9.72 8.64014 7.54411 8.64014 4.86C8.64014 2.17589 10.816 0 13.5001 0C16.1842 0 18.3601 2.17589 18.3601 4.86Z" fill="#0401E4"/>
<path d="M13.1261 14.1116C11.4171 12.3656 9.37647 10.9787 7.12401 10.0324C4.87154 9.08604 2.4527 8.59935 0.00952148 8.60086V18.4181C1.84733 18.4204 3.63604 19.0115 5.11325 20.1048C6.59046 21.1981 7.67842 22.736 8.21752 24.4931C8.736 20.6068 10.4516 16.9784 13.1261 14.1116Z" fill="#0401E4"/>
<path d="M26.9905 8.60086V18.4181C24.7152 18.4209 22.534 19.3261 20.9252 20.9349C19.3164 22.5437 18.4114 24.7249 18.4086 27H8.59131C8.59131 16.8548 16.8453 8.60086 26.9905 8.60086Z" fill="#0401E4"/>
</g>
</g>
<defs>
<clipPath id="clip0_80_76">
<rect width="27" height="27" fill="white"/>
</clipPath>
</defs>
</svg>
