<svg width="14" height="17" viewBox="0 0 14 17" fill="none" xmlns="http://www.w3.org/2000/svg">
<path d="M12.2 13.4H11.4C10.2954 13.4 9.4 12.5046 9.4 11.4V11.2C9.4 10.0954 10.2954 9.2 11.4 9.2H12.2M12.2 13.4V9.2M12.2 13.4V13.4C12.2 14.5598 11.2598 15.5 10.1 15.5H5.9M1 9.2V12C1 12.7732 1.6268 13.4 2.4 13.4V13.4C3.1732 13.4 3.8 12.7732 3.8 12V11.2C3.8 10.0954 2.90457 9.2 1.8 9.2H1ZM1 9.2V7.1C1 4.00721 3.5072 1.5 6.6 1.5V1.5C9.69279 1.5 12.2 4.00721 12.2 7.1V9.2" stroke="#4747FF" stroke-width="2" stroke-linecap="round" stroke-linejoin="round"/>
</svg>
