<svg width="33" height="27" viewBox="0 0 33 27" fill="none" xmlns="http://www.w3.org/2000/svg">
<path d="M33 20.4632C33 22.2128 30.4549 23.7596 28.7314 23.4583C27.6523 23.2697 26.3368 23.1429 24.75 23.1429C18.5625 23.1429 14.4375 27 8.25 27C3.74883 27 1.43061 25.6172 0.501339 24.8635C0.152102 24.5803 -1.78814e-07 24.1425 -1.78814e-07 23.6929V6.53684C-1.78814e-07 4.7872 2.54513 3.24038 4.26864 3.54168C5.34765 3.7303 6.66317 3.85714 8.25 3.85714C14.4375 3.85714 18.5625 0 24.75 0C29.1071 0 31.4188 1.1338 32.4052 1.80459C32.8144 2.08288 33 2.56037 33 3.05523V20.4632Z" fill="#B9DACF"/>
<path d="M0 23.9194C0 24.3568 0.58255 24.6566 0.974896 24.4632C2.12173 23.898 4.37833 23.1429 8.25 23.1429C14.4375 23.1429 18.5625 27 24.75 27C29.9407 27 32.2284 25.6428 32.8308 25.2055C32.9428 25.1241 33 24.9929 33 24.8544V3.08064C33 2.64323 32.4175 2.34345 32.0251 2.53682C30.8783 3.10205 28.6217 3.85714 24.75 3.85714C18.5625 3.85714 14.4375 0 8.25 0C3.05934 0 0.77162 1.35722 0.169219 1.79453C0.0571949 1.87586 0 2.00714 0 2.14557V23.9194Z" fill="url(#paint0_linear_224_48)"/>
<g filter="url(#filter0_d_224_48)">
<path d="M15.763 8.15462C15.7849 8.1082 15.8187 8.06912 15.8607 8.0418C15.9026 8.01448 15.9511 8 16.0004 8C16.0498 8 16.0982 8.01448 16.1402 8.0418C16.1822 8.06912 16.216 8.1082 16.2379 8.15462L17.3928 10.6079C17.4689 10.7694 17.5812 10.9091 17.7201 11.0151C17.859 11.121 18.0203 11.19 18.1903 11.2162L20.773 11.6126C20.822 11.62 20.8679 11.6416 20.9058 11.6751C20.9436 11.7085 20.9717 11.7523 20.987 11.8016C21.0023 11.851 21.0041 11.9038 20.9923 11.9541C20.9805 12.0045 20.9554 12.0503 20.92 12.0865L19.0522 13.9941C18.929 14.1199 18.8368 14.2753 18.7836 14.4469C18.7304 14.6184 18.7177 14.8009 18.7467 14.9787L19.1877 17.6738C19.1963 17.7251 19.191 17.7779 19.1724 17.8262C19.1538 17.8745 19.1226 17.9163 19.0824 17.9469C19.0423 17.9776 18.9947 17.9957 18.9451 17.9993C18.8956 18.0029 18.846 17.9919 18.8022 17.9674L16.4934 16.6943C16.3413 16.6106 16.172 16.5668 16.0002 16.5668C15.8284 16.5668 15.6591 16.6106 15.507 16.6943L13.1987 17.9674C13.1549 17.9917 13.1054 18.0027 13.0559 17.999C13.0065 17.9953 12.959 17.9771 12.9189 17.9465C12.8788 17.916 12.8476 17.8742 12.8291 17.8259C12.8105 17.7777 12.8052 17.725 12.8137 17.6738L13.2542 14.9793C13.2833 14.8014 13.2707 14.6187 13.2175 14.4471C13.1643 14.2755 13.072 14.12 12.9487 13.9941L11.0809 12.0871C11.0452 12.0509 11.0199 12.005 11.0079 11.9545C10.9959 11.904 10.9976 11.8509 11.0129 11.8014C11.0283 11.7519 11.0565 11.7079 11.0945 11.6744C11.1325 11.6409 11.1787 11.6193 11.2279 11.612L13.8101 11.2162C13.9803 11.1902 14.1418 11.1213 14.2809 11.0153C14.42 10.9094 14.5324 10.7696 14.6086 10.6079L15.763 8.15462Z" fill="url(#paint1_linear_224_48)"/>
<path d="M15.763 8.15462C15.7849 8.1082 15.8187 8.06912 15.8607 8.0418C15.9026 8.01448 15.9511 8 16.0004 8C16.0498 8 16.0982 8.01448 16.1402 8.0418C16.1822 8.06912 16.216 8.1082 16.2379 8.15462L17.3928 10.6079C17.4689 10.7694 17.5812 10.9091 17.7201 11.0151C17.859 11.121 18.0203 11.19 18.1903 11.2162L20.773 11.6126C20.822 11.62 20.8679 11.6416 20.9058 11.6751C20.9436 11.7085 20.9717 11.7523 20.987 11.8016C21.0023 11.851 21.0041 11.9038 20.9923 11.9541C20.9805 12.0045 20.9554 12.0503 20.92 12.0865L19.0522 13.9941C18.929 14.1199 18.8368 14.2753 18.7836 14.4469C18.7304 14.6184 18.7177 14.8009 18.7467 14.9787L19.1877 17.6738C19.1963 17.7251 19.191 17.7779 19.1724 17.8262C19.1538 17.8745 19.1226 17.9163 19.0824 17.9469C19.0423 17.9776 18.9947 17.9957 18.9451 17.9993C18.8956 18.0029 18.846 17.9919 18.8022 17.9674L16.4934 16.6943C16.3413 16.6106 16.172 16.5668 16.0002 16.5668C15.8284 16.5668 15.6591 16.6106 15.507 16.6943L13.1987 17.9674C13.1549 17.9917 13.1054 18.0027 13.0559 17.999C13.0065 17.9953 12.959 17.9771 12.9189 17.9465C12.8788 17.916 12.8476 17.8742 12.8291 17.8259C12.8105 17.7777 12.8052 17.725 12.8137 17.6738L13.2542 14.9793C13.2833 14.8014 13.2707 14.6187 13.2175 14.4471C13.1643 14.2755 13.072 14.12 12.9487 13.9941L11.0809 12.0871C11.0452 12.0509 11.0199 12.005 11.0079 11.9545C10.9959 11.904 10.9976 11.8509 11.0129 11.8014C11.0283 11.7519 11.0565 11.7079 11.0945 11.6744C11.1325 11.6409 11.1787 11.6193 11.2279 11.612L13.8101 11.2162C13.9803 11.1902 14.1418 11.1213 14.2809 11.0153C14.42 10.9094 14.5324 10.7696 14.6086 10.6079L15.763 8.15462Z" stroke="#F4BF14" stroke-width="0.5" stroke-linecap="round" stroke-linejoin="round"/>
</g>
<defs>
<filter id="filter0_d_224_48" x="6.75" y="7.75" width="18.5" height="18.5" filterUnits="userSpaceOnUse" color-interpolation-filters="sRGB">
<feFlood flood-opacity="0" result="BackgroundImageFix"/>
<feColorMatrix in="SourceAlpha" type="matrix" values="0 0 0 0 0 0 0 0 0 0 0 0 0 0 0 0 0 0 127 0" result="hardAlpha"/>
<feOffset dy="4"/>
<feGaussianBlur stdDeviation="2"/>
<feComposite in2="hardAlpha" operator="out"/>
<feColorMatrix type="matrix" values="0 0 0 0 0 0 0 0 0 0 0 0 0 0 0 0 0 0 0.25 0"/>
<feBlend mode="normal" in2="BackgroundImageFix" result="effect1_dropShadow_224_48"/>
<feBlend mode="normal" in="SourceGraphic" in2="effect1_dropShadow_224_48" result="shape"/>
</filter>
<linearGradient id="paint0_linear_224_48" x1="16.5" y1="1.79774e-07" x2="21.4475" y2="37.648" gradientUnits="userSpaceOnUse">
<stop stop-color="#379777"/>
<stop offset="1" stop-color="#2C785E"/>
</linearGradient>
<linearGradient id="paint1_linear_224_48" x1="16.2381" y1="12.25" x2="17.5478" y2="20.7316" gradientUnits="userSpaceOnUse">
<stop stop-color="#F4CE14"/>
<stop offset="1" stop-color="#F4B514"/>
</linearGradient>
</defs>
</svg>
