<svg width="26" height="26" viewBox="0 0 26 26" fill="none" xmlns="http://www.w3.org/2000/svg">
<path fill-rule="evenodd" clip-rule="evenodd" d="M26 6C26 2.68629 23.3137 0 20 0H6C2.68629 0 0 2.68629 0 6V20C0 23.3137 2.68629 26 6 26H20C23.3137 26 26 23.3137 26 20V6ZM12.8328 7.04598C12.7825 7.07603 12.7419 7.11902 12.7156 7.17008L11.3303 9.86874C11.2389 10.0465 11.104 10.2003 10.9371 10.3169C10.7702 10.4334 10.5763 10.5092 10.3722 10.5378L7.27346 10.9732C7.21448 10.9813 7.15904 11.005 7.11344 11.0419C7.06783 11.0787 7.03391 11.1271 7.01553 11.1816C6.99714 11.236 6.99504 11.2943 7.00946 11.3499C7.02387 11.4055 7.05423 11.456 7.09707 11.4958L9.33847 13.5935C9.48642 13.732 9.5971 13.903 9.66096 14.0918C9.72482 14.2806 9.73995 14.4815 9.70504 14.6772L9.17648 17.6412C9.1662 17.6975 9.17257 17.7555 9.19488 17.8085C9.21718 17.8616 9.25452 17.9075 9.30265 17.9412C9.35078 17.9748 9.40777 17.9948 9.46713 17.9989C9.52649 18.0029 9.58584 17.9909 9.63844 17.9641L12.4084 16.5638C12.5909 16.4716 12.794 16.4235 13.0002 16.4235C13.2064 16.4235 13.4095 16.4716 13.5921 16.5638L16.3626 17.9641C16.4152 17.9911 16.4747 18.0032 16.5341 17.9993C16.5936 17.9953 16.6507 17.9753 16.6989 17.9416C16.7472 17.908 16.7846 17.8619 16.8069 17.8088C16.8292 17.7557 16.8356 17.6976 16.8252 17.6412L16.296 14.6766C16.2613 14.481 16.2765 14.2802 16.3403 14.0916C16.4042 13.9029 16.5148 13.7319 16.6626 13.5935L18.904 11.4952C18.9465 11.4554 18.9765 11.4049 18.9907 11.3495C19.005 11.2941 19.0028 11.236 18.9844 11.1818C18.9661 11.1275 18.9323 11.0793 18.8869 11.0426C18.8415 11.0058 18.7863 10.982 18.7276 10.9738L15.6283 10.5378C15.4244 10.509 15.2308 10.4331 15.0641 10.3166C14.8975 10.2 14.7627 10.0464 14.6714 9.86874L13.2855 7.17008C13.2592 7.11902 13.2186 7.07603 13.1683 7.04598C13.1179 7.01593 13.0598 7 13.0005 7C12.9413 7 12.8832 7.01593 12.8328 7.04598Z" fill="url(#paint0_linear_234_351)"/>
<defs>
<linearGradient id="paint0_linear_234_351" x1="13" y1="-2.98023e-07" x2="23" y2="59.5" gradientUnits="userSpaceOnUse">
<stop stop-color="#3DA885"/>
<stop offset="1" stop-color="#297058"/>
</linearGradient>
</defs>
</svg>
