<svg width="10" height="9" viewBox="0 0 10 9" fill="none" xmlns="http://www.w3.org/2000/svg">
<path d="M9.28571 5.14286H5.71429V8.35714C5.71429 8.52764 5.63903 8.69115 5.50508 8.81171C5.37112 8.93227 5.18944 9 5 9C4.81056 9 4.62888 8.93227 4.49492 8.81171C4.36097 8.69115 4.28571 8.52764 4.28571 8.35714V5.14286H0.714286C0.524845 5.14286 0.343164 5.07513 0.20921 4.95457C0.075255 4.83401 0 4.6705 0 4.5C0 4.3295 0.075255 4.16599 0.20921 4.04543C0.343164 3.92487 0.524845 3.85714 0.714286 3.85714H4.28571V0.642857C4.28571 0.472361 4.36097 0.308847 4.49492 0.188288C4.62888 0.0677292 4.81056 0 5 0C5.18944 0 5.37112 0.0677292 5.50508 0.188288C5.63903 0.308847 5.71429 0.472361 5.71429 0.642857V3.85714H9.28571C9.47515 3.85714 9.65684 3.92487 9.79079 4.04543C9.92475 4.16599 10 4.3295 10 4.5C10 4.6705 9.92475 4.83401 9.79079 4.95457C9.65684 5.07513 9.47515 5.14286 9.28571 5.14286Z" fill="#4747FF"/>
</svg>
